<svg width="800" height="801" viewBox="0 0 800 801" fill="none" xmlns="http://www.w3.org/2000/svg">
<path d="M142.155 148.961C248.593 38.485 364.334 193.548 421.71 319.697L356.566 562.818C286.406 518.321 171.744 433.502 180.778 426.94C189.811 420.379 162.396 406.751 159.259 403.665C119.592 372.079 128.625 327.26 130.74 310.796C133.496 294.815 140.798 273.385 126.811 232.045C111.392 186.474 136.675 158.969 142.155 148.961Z" fill="white"/>
<path d="M749.226 311.46C712.286 162.566 534.479 239.134 421.716 319.694L356.612 562.665C439.62 559.209 580.798 538.699 577.241 530.579C576.393 520.855 602.227 524.324 607.061 523.489C657.207 515.968 671.793 472.636 678.194 457.321C683.798 442.103 688.189 419.892 720.972 391.085C757.111 359.329 748.967 322.868 749.226 311.46Z" fill="white"/>
<ellipse cx="466.063" cy="562.085" rx="114.245" ry="119.249" transform="rotate(15 466.063 562.085)" fill="white"/>
<ellipse cx="263.077" cy="507.697" rx="114.245" ry="119.249" transform="rotate(15 263.077 507.697)" fill="white"/>
<path d="M732.17 333.103C721.069 172.691 517.04 269.028 416.414 337.247L360.944 544.263C435.632 542.195 566.906 531.1 562.704 522.257C558.503 513.414 582.149 514.14 585.972 513.235C631.031 507.301 650.12 481.332 654.033 469.089C659.307 456.135 669.532 421.148 697.228 395.127C724.924 369.105 732.063 342.935 732.17 333.103Z" fill="white"/>
<path d="M145.034 175.779C234.854 42.4093 363.379 227.854 416.415 337.247L360.945 544.263C297.298 505.128 189.158 429.883 197.218 424.325C205.278 418.767 184.437 407.573 181.579 404.878C145.524 377.209 142.987 346.787 144.71 332.615C147.015 318.867 155.257 283.348 144.283 246.965C133.308 210.582 140.211 184.348 145.034 175.779Z" fill="white"/>
<ellipse cx="466.925" cy="556.575" rx="103.749" ry="110.576" transform="rotate(15 466.925 556.575)" fill="white"/>
<ellipse cx="266.493" cy="502.87" rx="103.749" ry="110.576" transform="rotate(15 266.493 502.87)" fill="white"/>
<path d="M418.944 330.454C424.765 380.1 426.983 475.27 361.246 549.318C349.097 501.151 354.078 409.551 418.944 330.454Z" fill="white"/>
</svg>
