<svg width="800" height="800" viewBox="0 0 800 800" fill="none" xmlns="http://www.w3.org/2000/svg">
<path d="M142.155 148.461C248.593 37.985 364.334 193.048 421.71 319.197L356.566 562.318C286.406 517.821 171.744 433.002 180.778 426.44C189.811 419.879 162.396 406.251 159.259 403.165C119.592 371.579 128.625 326.76 130.74 310.296C133.496 294.315 140.798 272.885 126.811 231.545C111.392 185.974 136.675 158.469 142.155 148.461Z" fill="black"/>
<path d="M749.224 310.96C712.284 162.066 534.477 238.634 421.714 319.194L356.61 562.165C439.619 558.709 580.796 538.199 577.239 530.079C576.391 520.355 602.225 523.824 607.059 522.989C657.205 515.468 671.791 472.136 678.192 456.821C683.796 441.603 688.187 419.392 720.97 390.585C757.109 358.829 748.965 322.368 749.224 310.96Z" fill="black"/>
<ellipse cx="466.063" cy="561.585" rx="114.245" ry="119.249" transform="rotate(15 466.063 561.585)" fill="black"/>
<ellipse cx="263.077" cy="507.197" rx="114.245" ry="119.249" transform="rotate(15 263.077 507.197)" fill="black"/>
<path d="M732.17 332.603C721.069 172.191 517.04 268.528 416.414 336.747L360.944 543.763C435.632 541.695 566.906 530.6 562.704 521.757C558.503 512.914 582.149 513.64 585.972 512.735C631.031 506.801 650.12 480.832 654.033 468.589C659.307 455.635 669.532 420.648 697.228 394.627C724.924 368.605 732.063 342.435 732.17 332.603Z" fill="black"/>
<path d="M145.034 175.279C234.854 41.9093 363.379 227.354 416.415 336.747L360.945 543.763C297.298 504.628 189.158 429.383 197.218 423.825C205.278 418.267 184.437 407.073 181.579 404.378C145.524 376.709 142.987 346.287 144.71 332.115C147.015 318.367 155.257 282.848 144.283 246.465C133.308 210.082 140.211 183.848 145.034 175.279Z" fill="black"/>
<ellipse cx="466.925" cy="556.075" rx="103.749" ry="110.576" transform="rotate(15 466.925 556.075)" fill="black"/>
<ellipse cx="266.493" cy="502.37" rx="103.749" ry="110.576" transform="rotate(15 266.493 502.37)" fill="black"/>
<path d="M418.944 329.954C424.765 379.6 426.983 474.77 361.246 548.818C349.097 500.651 354.078 409.051 418.944 329.954Z" fill="black"/>
</svg>
